HIERARCHY
ROOT root     
{
	OFFSET 0.0000 0.0000 0.0000
	CHANNELS 6 Xposition Yposition Zposition Zrotation Yrotation Xrotation
	JOINT pelvis   
	{
		OFFSET 0.0000 0.0000 0.0000
		CHANNELS 3 Zrotation Yrotation Xrotation
		JOINT thorax   
		{
			OFFSET 0.0000 23.0750 -5.0000
			CHANNELS 3 Zrotation Yrotation Xrotation
			JOINT rclavicle
			{
				OFFSET 0.0000 28.0009 0.0000
				CHANNELS 3 Zrotation Yrotation Xrotation
				JOINT rhumerus 
				{
					OFFSET -18.5725 5.5939 0.0000
					CHANNELS 3 Zrotation Yrotation Xrotation
					JOINT rradius  
					{
						OFFSET -24.8459 0.0000 0.0000
						CHANNELS 3 Zrotation Yrotation Xrotation
						JOINT rhand    
						{
							OFFSET -24.5477 0.0000 0.0000
							CHANNELS 3 Zrotation Yrotation Xrotation
							End Site
							{
								OFFSET -8.1826 0.0000 0.0000
							}
						}
					}
				}
			}
			JOINT lclavicle
			{
				OFFSET 0.0000 28.0009 0.0000
				CHANNELS 3 Zrotation Yrotation Xrotation
				JOINT lhumerus 
				{
					OFFSET 18.5725 5.5939 0.0000
					CHANNELS 3 Zrotation Yrotation Xrotation
					JOINT lradius  
					{
						OFFSET 24.8459 0.0000 0.0000
						CHANNELS 3 Zrotation Yrotation Xrotation
						JOINT lhand    
						{
							OFFSET 24.5477 0.0000 0.0000
							CHANNELS 3 Zrotation Yrotation Xrotation
							End Site
							{
								OFFSET 8.1826 0.0000 0.0000
							}
						}
					}
				}
			}
			JOINT head     
			{
				OFFSET 0.0000 35.2030 0.0000
				CHANNELS 3 Zrotation Yrotation Xrotation
				End Site
				{
					OFFSET 0.0000 11.7343 0.0000
				}
			}
		}
		JOINT rfemur   
		{
			OFFSET -8.2817 0.0000 0.0000
			CHANNELS 3 Zrotation Yrotation Xrotation
			JOINT rtibia   
			{
				OFFSET 0.0000 -43.3627 0.0000
				CHANNELS 3 Zrotation Yrotation Xrotation
				JOINT rfoot    
				{
					OFFSET 0.0000 -38.2947 0.0000
					CHANNELS 3 Zrotation Yrotation Xrotation
					JOINT rtoes    
					{
						OFFSET 0.0000 0.0000 16.6054
						CHANNELS 3 Zrotation Yrotation Xrotation
						End Site
						{
							OFFSET 0.0000 0.0000 5.5351
						}
					}
				}
			}
		}
		JOINT lfemur   
		{
			OFFSET 8.2817 0.0000 0.0000
			CHANNELS 3 Zrotation Yrotation Xrotation
			JOINT ltibia   
			{
				OFFSET 0.0000 -43.3627 0.0000
				CHANNELS 3 Zrotation Yrotation Xrotation
				JOINT lfoot    
				{
					OFFSET 0.0000 -38.2947 0.0000
					CHANNELS 3 Zrotation Yrotation Xrotation
					JOINT ltoes    
					{
						OFFSET 0.0000 0.0000 16.6054
						CHANNELS 3 Zrotation Yrotation Xrotation
						End Site
						{
							OFFSET 0.0000 0.0000 5.5351
						}
					}
				}
			}
		}
	}
}
MOTION
Frames: 15
Frame Time: .0333333
30.031 86.825 5.2379 6.3052 -63.8428 2.3933 0 -0 0 -9.82594 2.97964 -6.89329 7.76124 10.313 2.27565e-06 59.5685 35.4449 -6.6565 -0 15.515 -0 3.43274 -2.94561 -0.0883014 -17.813 3.92098 9.92824e-06 -67.8161 -64.3539 13.7417 -180 -60.2305 180 24.1153 -16.6089 -3.57175 0.919906 -9.29674 1.60377 -2.75249 -13.6434 -0.963852 -0 -0 2.12166 0.854597 -20.7572 5.96881 -3.16394 -4.48099e-06 -26.6424 0.111804 0.412102 -8.59783 -0 -0 1.0147 8.82628e-06 -1.45319 12.5624 -0.316094 1.08712e-06 -30.2183 
29.966 86.781 5.2428 6.18878 -63.3761 2.37113 0 -0 0 -9.76105 2.48889 -6.7238 9.56528 9.99535 2.57138e-06 60.6582 33.535 -6.714 -0 16.7984 -0 2.72134 -2.11076 -0.0500998 -17.8982 3.85345 5.87885e-06 -67.1721 -63.91 13.1091 -180 -59.8101 180 24.5131 -16.8653 -3.68931 1.17974 -9.1026 1.38245 -2.72696 -13.8019 -0.710405 -0 -0 2.12395 0.867158 -21.0177 5.80806 -3.14891 1.45319e-05 -26.5598 0.1712 0.224804 -8.42042 -0 -0 0.887097 -6.37092e-06 -1.75095 12.5388 -0.380207 -1.29317e-07 -30.4694 
29.913 86.737 5.2482 6.05776 -62.9836 2.37561 0 -0 0 -9.63015 1.98467 -6.57354 11.315 9.55093 1.03219e-05 61.4662 31.8531 -6.66732 -0 18.2176 -0 2.19999 -1.43125 -0.0274989 -17.9558 3.75195 1.38797e-05 -66.4038 -63.4273 12.2985 -180 -59.3319 180 25.0189 -17.1619 -3.83498 1.41929 -8.85483 1.15243 -2.69359 -13.9436 -0.475192 -0 -0 2.09143 0.862935 -21.2232 5.69405 -3.12588 -2.24313e-06 -26.5326 0.235997 0.0855996 -8.25922 -0 -0 0.765793 -7.34772e-06 -2.02403 12.5082 -0.438493 -1.25019e-06 -30.7231 
29.873 86.697 5.2541 5.9163 -62.6798 2.40515 0 -0 0 -9.43962 1.47035 -6.45308 12.943 9.00098 -3.26719e-06 62.0625 30.3945 -6.39222 -0 19.7734 -0 1.87604 -1.0195 -0.0166994 -17.9829 3.62685 -1.20019e-05 -65.5409 -62.9074 11.3466 -180 -58.8044 180 25.6005 -17.4769 -4.00013 1.64535 -8.55393 0.933702 -2.65404 -14.0621 -0.266881 -0 -0 2.02977 0.843893 -21.3683 5.62768 -3.09729 1.61783e-05 -26.5559 0.302701 0.00610032 -8.11337 -0 -0 0.645013 8.72858e-06 -2.27023 12.4753 -0.490704 -1.68346e-06 -30.9688 
29.846 86.661 5.2606 5.77141 -62.4722 2.45842 0 -0 0 -9.1964 0.947489 -6.37162 14.391 8.38385 4.11954e-05 62.5198 29.1298 -5.85217 -1.20819e-07 21.4668 -6.37375e-07 1.71707 -0.931496 -0.0140006 -17.981 3.49034 -1.44261e-05 -64.5994 -62.3613 10.288 -180 -58.2424 180 26.2202 -17.7892 -4.17478 1.86532 -8.20433 0.747594 -2.61001 -14.1513 -0.0931102 -0 -0 1.94526 0.812371 -21.4538 5.60796 -3.06611 1.2086e-06 -26.6203 0.367699 -0.00459999 -7.98253 -0 -0 0.519502 -5.18971e-06 -2.48832 12.4491 -0.536708 9.08826e-07 -31.1949 
29.83 86.633 5.2677 5.62499 -62.3692 2.53436 0 -0 0 -8.90948 0.416493 -6.33544 15.6225 7.721 2.64363e-05 62.8869 28.0589 -5.01745 -1.32463e-07 23.2587 -6.43632e-07 1.64949 -1.1233 -0.0161999 -17.9526 3.35904 -9.25685e-06 -63.6187 -61.8005 9.17313 -180 -57.661 180 26.8305 -18.0772 -4.3457 2.0886 -7.81396 0.614194 -2.56269 -14.2072 0.0393133 -0 -0 1.84489 0.771418 -21.4826 5.63256 -3.03542 9.86748e-06 -26.716 0.427901 0.0602001 -7.86647 -0 -0 0.385904 1.08981e-06 -2.67772 12.4323 -0.5769 -7.31667e-06 -31.3946 
29.827 86.613 5.2755 5.48377 -62.3732 2.63034 0 -0 0 -8.58779 -0.122408 -6.34947 16.6172 7.04501 1.52012e-05 63.2106 27.1549 -3.91558 -0 25.1363 -0 1.59465 -1.50735 -0.0209999 -17.9036 3.24902 7.30971e-06 -62.6337 -61.2404 8.04775 -180 -57.0748 180 27.3899 -18.3207 -4.50047 2.32285 -7.39293 0.552701 -2.51399 -14.2201 0.125897 -0 -0 1.7345 0.72432 -21.4567 5.69735 -3.00734 2.57994e-05 -26.8307 0.480605 0.204304 -7.76529 -0 -0 0.242795 8.34053e-06 -2.83799 12.4292 -0.611301 6.41197e-06 -31.559 
29.834 86.602 5.2839 5.35157 -62.4842 2.7434 0 -0 0 -8.23932 -0.668194 -6.41804 17.3671 6.40594 3.06356e-05 63.5196 26.3605 -2.63907 -0 27.1279 -0 1.49318 -1.99347 -0.0259995 -17.843 3.1732 -1.69211e-05 -61.6595 -60.6984 6.93834 -180 -56.4982 180 27.8614 -18.507 -4.62831 2.57183 -6.95316 0.580193 -2.46545 -14.1858 0.164087 -0 -0 1.62004 0.673984 -21.3844 5.79653 -2.98337 4.32583e-07 -26.9567 0.523396 0.429006 -7.6784 -0 -0 0.0915998 -1.157e-05 -2.96935 12.44 -0.640207 3.4774e-06 -31.6851 
29.851 86.599 5.293 5.23089 -62.7046 2.86938 0 -0 0 -7.87201 -1.21881 -6.53948 17.8914 5.80936 2.65411e-05 63.8191 25.6758 -1.2086 -0 29.2204 -0 1.27413 -2.44599 -0.0272005 -17.7733 3.14436 7.53647e-06 -60.7257 -60.1938 5.88071 -180 -55.9513 180 28.2118 -18.6252 -4.7193 2.83829 -6.50726 0.707909 -2.41914 -14.0993 0.153803 -0 -0 1.50659 0.623062 -21.2691 5.92369 -2.96428 -1.62963e-05 -27.0843 0.554802 0.732098 -7.66594 -0 -0 0.0638997 0.00361748 -3.0713 12.3929 -0.663294 1.11498e-06 -31.7695 
29.875 86.603 5.3028 5.12571 -63.0303 3.00256 0 -0 0 -7.49194 -1.771 -6.71178 18.2187 5.27365 6.32871e-06 64.1115 25.0741 0.308701 -0 31.4332 -0 0.8985 -2.76333 -0.0217002 -17.7037 3.16912 -1.35208e-05 -59.8421 -59.7386 4.88823 -180 -55.445 180 28.4255 -18.6684 -4.7678 3.11944 -6.06713 0.943209 -2.37714 -13.9572 0.0974867 -0 -0 1.39895 0.573987 -21.1171 6.07062 -2.94934 1.02037e-05 -27.21 0.574002 1.1079 -7.7517 -0 -0 0.217998 0.0126931 -3.14244 12.258 -0.680303 3.39374e-06 -31.8148 
29.905 86.614 5.3133 5.03742 -63.456 3.13773 0 -0 0 -7.10353 -2.32064 -6.92981 18.387 4.79969 -8.35766e-06 64.3808 24.5546 1.86202 -0 33.7733 -0 0.342301 -2.85385 -0.00850011 -17.6367 3.24958 -5.53616e-06 -59.0151 -59.343 3.97015 -180 -54.9888 180 28.4921 -18.6409 -4.77225 3.40887 -5.64236 1.28811 -2.34179 -13.7605 -0.00069868 -0 -0 1.30062 0.528369 -20.9303 6.22959 -2.93778 -2.12489e-05 -27.3354 0.580902 1.54696 -7.84235 -0 -0 0.363903 0.0214963 -3.18035 12.131 -0.690004 -4.9366e-07 -31.8259 
29.94 86.627 5.3246 4.96932 -63.9758 3.26881 0 -0 0 -6.7095 -2.86354 -7.18706 18.4411 4.38285 -6.40276e-06 64.6133 24.1217 3.39933 -0 36.2413 -0 -0.393992 -2.65245 0.00909957 -17.5757 3.38237 -1.37245e-06 -58.2451 -59.005 3.12049 -180 -54.5847 180 28.4192 -18.548 -4.7354 3.69713 -5.23937 1.73904 -2.31509 -13.5116 -0.13511 -0 -0 1.21459 0.48777 -20.711 6.39244 -2.92752 3.21578e-06 -27.4609 0.576303 2.03657 -7.93018 -0 -0 0.4945 0.0292119 -3.18103 12.0131 -0.691295 -5.10941e-06 -31.8065 
29.977 86.642 5.3367 4.92045 -64.5791 3.39021 0 -0 0 -6.31166 -3.39617 -7.47742 18.4228 4.01773 -2.08379e-06 64.7911 23.784 4.8649 -2.5766e-07 38.8351 -7.30951e-07 -1.27737 -2.13196 0.0237992 -17.5218 3.55869 5.04755e-06 -57.5212 -58.7213 2.32821 -180 -54.2378 180 28.2235 -18.4012 -4.66362 3.97126 -4.86085 2.28878 -2.29866 -13.2183 -0.299592 -0 -0 1.1433 0.453089 -20.4615 6.55175 -2.91719 1.40353e-05 -27.5946 0.5618 2.561 -8.008 -0 -0 0.603194 0.0351065 -3.13956 11.9059 -0.682787 2.38316e-06 -31.7657 
30.017 86.656 5.3495 4.89329 -65.2566 3.49731 0 -0 0 -5.91046 -3.91649 -7.79198 18.3732 3.67529 -1.22265e-05 64.9059 23.5813 6.2535 -2.85737e-07 41.5131 -7.53923e-07 -2.2585 -1.28904 0.025401 -17.4755 3.76933 -1.56419e-05 -56.8323 -58.4849 1.57763 -180 -53.945 180 27.933 -18.2184 -4.56721 4.21823 -4.50519 2.92501 -2.29366 -12.8865 -0.487896 -0 -0 1.08841 0.424958 -20.181 6.70085 -2.90453 -2.37972e-05 -27.7455 0.539396 3.10336 -8.06928 -0 -0 0.684303 0.0387011 -3.05135 11.8076 -0.662898 -1.47113e-06 -31.711 
30.057 86.668 5.3632 4.8882 -65.9938 3.58554 0 -0 0 -5.50602 -4.42392 -8.12492 18.322 3.35309 2.17599e-05 64.9583 23.518 7.51448 -0 44.2647 -0 -3.23765 -0.197305 0.00560021 -17.4315 3.99855 1.27335e-05 -56.1649 -58.2719 0.849056 -180 -53.6945 180 27.577 -18.0187 -4.4565 4.4252 -4.16711 3.63423 -2.30063 -12.5275 -0.694091 -0 -0 1.0518 0.403875 -19.8705 6.83407 -2.88803 -1.4081e-06 -27.9189 0.511297 3.64683 -8.10968 -0 -0 0.733894 0.0397096 -2.91266 11.7185 -0.630994 1.97808e-06 -31.649 
